<svg width="126" height="242" viewBox="0 0 126 242" fill="none" xmlns="http://www.w3.org/2000/svg">
<path fill-rule="evenodd" clip-rule="evenodd" d="M113 0C113 7.1797 107.18 13 100 13C107.18 13 113 18.8203 113 26C113 18.8203 118.82 13 126 13C118.82 13 113 7.1797 113 0Z" fill="white"/>
<path fill-rule="evenodd" clip-rule="evenodd" d="M13 118C13 125.18 7.1797 131 0 131C7.1797 131 13 136.82 13 144C13 136.82 18.8203 131 26 131C18.8203 131 13 125.18 13 118Z" fill="white"/>
<path fill-rule="evenodd" clip-rule="evenodd" d="M107 216C107 223.18 101.18 229 94 229C101.18 229 107 234.82 107 242C107 234.82 112.82 229 120 229C112.82 229 107 223.18 107 216Z" fill="white"/>
</svg>
