<svg width="206" height="319" viewBox="0 0 206 319" fill="none" xmlns="http://www.w3.org/2000/svg">
<g filter="url(#filter0_d_2002_65)">
<path d="M16 12H190V294C190 296.761 187.761 299 185 299H21C18.2386 299 16 296.761 16 294V12Z" fill="#94E94B"/>
<path d="M16 294C16 296.761 18.2386 299 21 299H185C187.761 299 190 296.761 190 294V283H16V294Z" fill="#475E6E"/>
<path fill-rule="evenodd" clip-rule="evenodd" d="M28 288H26V299H28V288ZM36 288H34V299H36V288ZM42 288H44V299H42V288ZM52 288H50V299H52V288ZM58 288H60V299H58V288ZM68 288H66V299H68V288ZM74 288H76V299H74V288ZM84 288H82V299H84V288ZM90 288H92V299H90V288ZM100 288H98V299H100V288ZM106 288H108V299H106V288ZM116 288H114V299H116V288ZM122 288H124V299H122V288ZM132 288H130V299H132V288ZM138 288H140V299H138V288ZM148 288H146V299H148V288ZM154 288H156V299H154V288ZM164 288H162V299H164V288ZM170 288H172V299H170V288ZM180 288H178V299H180V288Z" fill="#304553"/>
<path fill-rule="evenodd" clip-rule="evenodd" d="M26 12H16V283L20.2055 277.953C23.9496 273.46 26 267.797 26 261.949V34H159.858C167.239 34 174.242 30.7388 178.993 25.09L190 12H26Z" fill="white" fill-opacity="0.25"/>
<path fill-rule="evenodd" clip-rule="evenodd" d="M180 283H190V12L185.794 17.0466C182.05 21.5395 180 27.2028 180 33.0513V261H46.1416C38.761 261 31.7576 264.261 27.0075 269.91L16 283H180Z" fill="black" fill-opacity="0.1"/>
</g>
<defs>
<filter id="filter0_d_2002_65" x="0" y="0" width="206" height="319" filterUnits="userSpaceOnUse" color-interpolation-filters="sRGB">
<feFlood flood-opacity="0" result="BackgroundImageFix"/>
<feColorMatrix in="SourceAlpha" type="matrix" values="0 0 0 0 0 0 0 0 0 0 0 0 0 0 0 0 0 0 127 0" result="hardAlpha"/>
<feOffset dy="4"/>
<feGaussianBlur stdDeviation="8"/>
<feComposite in2="hardAlpha" operator="out"/>
<feColorMatrix type="matrix" values="0 0 0 0 0 0 0 0 0 0 0 0 0 0 0 0 0 0 0.25 0"/>
<feBlend mode="normal" in2="BackgroundImageFix" result="effect1_dropShadow_2002_65"/>
<feBlend mode="normal" in="SourceGraphic" in2="effect1_dropShadow_2002_65" result="shape"/>
</filter>
</defs>
</svg>
